<?xml version="1.0" standalone="no"?>
<!DOCTYPE svg PUBLIC "-//W3C//DTD SVG 20010904//EN"
 "http://www.w3.org/TR/2001/REC-SVG-20010904/DTD/svg10.dtd">
<svg version="1.0" xmlns="http://www.w3.org/2000/svg"
 width="700.000000pt" height="700.000000pt" viewBox="0 0 700.000000 700.000000"
 preserveAspectRatio="xMidYMid meet">
<metadata>
Created by potrace 1.14, written by Peter Selinger 2001-2017
</metadata>
<g transform="translate(0.000000,700.000000) scale(0.100000,-0.100000)"
fill="#000000" stroke="none">
<path d="M3528 5855 c-2 -1 -50 -5 -108 -8 -86 -5 -262 -30 -365 -52 -82 -17
-259 -73 -358 -113 -116 -48 -332 -177 -412 -247 -105 -92 -170 -164 -238
-262 -91 -131 -90 -142 1 -17 133 183 367 357 613 455 118 47 315 101 419 115
25 3 54 8 65 10 133 26 645 25 745 -1 8 -2 35 -6 60 -9 25 -3 56 -8 70 -11 13
-2 42 -7 64 -11 22 -3 43 -7 47 -9 3 -2 21 -7 40 -10 19 -3 90 -21 159 -41
615 -173 1120 -507 1398 -924 92 -139 190 -363 208 -478 3 -19 8 -44 10 -56
37 -180 26 -435 -26 -627 -12 -41 -23 -85 -26 -98 -8 -38 -93 -249 -130 -323
-175 -348 -455 -704 -850 -1078 -303 -288 -633 -463 -1169 -619 -113 -33 -312
-73 -475 -95 -196 -27 -507 -28 -654 -2 -230 40 -403 123 -536 256 -124 123
-217 348 -206 495 8 105 39 239 73 315 98 220 221 416 358 571 50 56 239 245
285 284 404 344 957 561 1400 549 63 -2 129 -5 145 -8 83 -15 102 -19 168 -41
42 -13 64 -17 52 -9 -24 18 -212 91 -251 97 -16 3 -54 11 -84 17 -224 45 -519
27 -835 -51 -89 -22 -281 -83 -335 -106 -19 -8 -44 -18 -55 -22 -98 -36 -355
-179 -511 -286 -42 -28 -206 -156 -225 -174 -27 -27 -83 -76 -95 -84 -7 -4 -2
32 12 92 83 353 214 698 380 1001 55 101 190 320 219 355 11 13 38 50 60 81
22 31 47 64 55 74 8 10 43 51 78 91 131 154 326 332 468 426 30 20 53 38 51
40 -2 2 -44 -13 -93 -33 -473 -190 -890 -521 -1304 -1033 -284 -351 -551 -856
-654 -1236 -40 -149 -48 -192 -62 -355 -9 -93 -9 -326 -1 -400 3 -30 9 -80 12
-110 10 -89 54 -277 87 -369 144 -414 417 -706 806 -864 68 -28 217 -72 272
-82 19 -3 60 -10 90 -15 174 -31 515 -31 705 -1 33 6 78 13 100 16 43 6 58 8
145 26 144 28 363 87 520 139 222 74 544 223 731 339 283 176 455 327 734 645
33 38 65 74 70 80 6 6 26 31 45 56 19 25 37 47 41 50 3 3 42 52 85 110 358
472 582 981 620 1410 12 141 5 353 -17 465 -6 28 -12 61 -15 75 -20 103 -110
341 -161 422 -13 21 -23 40 -23 44 0 3 -31 51 -69 107 -305 447 -813 777
-1471 956 -41 11 -86 22 -100 25 -14 3 -70 14 -125 25 -55 11 -125 22 -155 26
-30 3 -66 8 -80 10 -86 13 -151 17 -310 20 -99 1 -180 2 -182 0z"/>
</g>
</svg>
