<?xml version="1.0" encoding="UTF-8" standalone="no"?>
<!DOCTYPE svg PUBLIC "-//W3C//DTD SVG 1.1//EN" "http://www.w3.org/Graphics/SVG/1.1/DTD/svg11.dtd">
<svg height="100%" stroke-miterlimit="10" style="fill-rule:nonzero;clip-rule:evenodd;stroke-linecap:round;stroke-linejoin:round;fill:#9dc7e7" version="1.1" viewBox="0 0 1024 1024" width="100%" xml:space="preserve" xmlns="http://www.w3.org/2000/svg" xmlns:xlink="http://www.w3.org/1999/xlink">
	<path d="M537.5 167.156C514.159 166.996 490.806 168.67 467.719 172.375C405.258 182.399 341.996 209.722 303.156 261.531C295.203 272.14 288.528 283.565 282.969 295.594C289.278 283.561 296.741 272.209 305.5 261.812C310.947 255.347 316.821 249.262 323.094 243.594C368.875 202.228 431.831 184.954 492.281 181.844C503.325 181.276 514.416 181.169 525.469 181.5C539.069 181.907 552.619 183.025 566.125 184.656C587.309 187.215 608.361 191.381 628.969 196.906C645.031 201.212 660.82 206.386 676.344 212.344C688.606 217.049 700.595 222.417 712.375 228.219C721.883 232.901 731.191 238.022 740.281 243.469C791.217 273.989 837.009 317.65 859.188 373.719C862.466 382.008 865.189 390.538 867.344 399.188C870.749 412.858 872.682 426.89 873.156 440.969C873.886 462.637 871.141 484.336 865.75 505.312C855.812 543.984 837.216 579.888 814.969 612.844C792.706 645.821 766.333 675.947 738.25 704.062C731.033 711.288 723.655 718.347 716.188 725.312C711.959 729.257 707.762 733.232 703.375 737C696.886 742.573 690.134 747.876 683.125 752.781C664.709 765.668 644.984 776.432 624.562 785.781C601.084 796.53 576.652 805.149 551.812 812.156C532.357 817.645 512.555 821.915 492.594 825.094C475.751 827.776 458.761 829.684 441.719 830.438C420.349 831.383 398.775 830.562 377.719 826.594C363.104 823.839 348.668 819.413 335.344 812.75C325.543 807.849 316.368 801.699 308.344 794.219C303.333 789.548 298.789 784.399 294.781 778.844C290.996 773.596 287.727 768.023 284.875 762.219C272.774 737.588 269.528 709.54 270 682.406C270.156 673.446 270.91 664.509 271.781 655.594C272.468 648.572 273.428 641.547 274.625 634.594C275.049 632.131 275.485 629.677 275.938 627.219C276.191 625.842 276.517 624.453 276.688 623.062C277.288 618.169 277.669 613.263 278.344 608.375C279.153 602.508 280.034 596.64 281.094 590.812C281.571 588.187 282.134 585.566 282.594 582.938C283.447 578.063 284.19 573.173 285.125 568.312C287.518 555.879 290.323 543.506 293.625 531.281C296.837 519.391 300.551 507.695 304.406 496C313.057 469.756 323.693 444.071 336.219 419.438C345.055 402.06 354.818 385.207 365.312 368.781C372.522 357.497 380.263 346.588 388.375 335.938C408.318 309.755 431.237 285.651 457.125 265.281C465.82 258.44 474.91 252.143 484.25 246.219C476.706 248.743 469.22 251.471 461.875 254.531C431.861 267.036 403.69 283.865 377.719 303.375C338.23 333.04 303.416 368.518 273.312 407.625C253.839 432.923 236.093 459.558 220.969 487.688C209.126 509.714 198.404 532.442 189.625 555.875C188.627 558.538 187.779 561.263 186.906 563.969C184.664 570.916 182.517 577.872 180.562 584.906C179.105 590.152 177.72 595.427 176.438 600.719C176.011 602.481 175.519 604.223 175.156 606C174.717 608.156 174.505 610.382 174.219 612.562C173.701 616.498 173.217 620.429 172.781 624.375C171.234 638.367 170.374 652.422 170.406 666.5C170.532 721.261 183.053 777.754 215.375 822.844C220.238 829.628 225.504 836.104 231.188 842.219C239.827 851.515 249.395 859.95 259.688 867.375C266.693 872.429 274.052 877.026 281.656 881.125C323.18 903.51 371.09 910.57 417.781 909.094C453.406 907.968 488.728 901.959 523.281 893.438C558.101 884.85 592.086 872.809 624.75 858.031C658.333 842.838 690.649 824.248 719.656 801.438C727.966 794.903 735.948 787.925 743.562 780.594C748.515 775.825 753.259 770.854 758.031 765.906C765.575 758.085 772.987 750.114 780.25 742.031C810.664 708.186 838.64 671.758 861.438 632.312C895.285 573.748 918.45 506.909 912.438 438.469C911.396 426.612 909.474 414.822 906.688 403.25C902.871 387.403 897.42 371.962 890.469 357.219C881.636 338.486 870.436 320.933 857.406 304.844C825.369 265.284 782.99 234.938 737.312 213C696.299 193.302 652.18 179.942 607.25 172.906C584.175 169.293 560.841 167.317 537.5 167.156Z" stroke="none"/>
	<path d="M537.625 454.406C522.553 454.967 507.521 456.689 492.688 459.406C472.974 463.017 453.585 468.102 434.594 474.5C420.846 479.132 407.265 484.373 394.125 490.531C377.549 498.3 361.581 507.41 346.312 517.5C331.176 527.503 316.583 538.349 302.75 550.094C292.946 558.418 283.433 567.023 274.312 576.094C261.894 588.445 250.36 601.707 239.812 615.688C220.468 641.328 204.752 669.909 195.688 700.812C192.436 711.899 190.022 723.252 189.125 734.781C188.942 737.137 188.808 739.514 188.719 741.875C188.683 742.808 188.596 743.723 188.625 744.656C188.67 746.099 189.007 747.527 189.281 748.938C189.737 751.284 190.232 753.612 190.781 755.938C191.329 758.256 191.885 760.599 192.594 762.875C193.312 765.18 194.294 767.429 195.219 769.656C197.448 775.023 199.937 780.258 202.75 785.344C204.854 789.148 207.066 792.916 209.531 796.5C215.292 804.875 221.986 812.648 229.281 819.719C234.553 824.828 240.134 829.646 246.094 833.938C262.114 845.474 280.054 853.885 298.688 860.25C288.243 844.427 279.654 827.782 274.438 809.5C271.69 799.872 269.921 789.942 269.844 779.906C269.789 772.768 270.241 765.548 271.594 758.531C272.01 756.375 272.632 754.249 273.031 752.094C273.314 750.566 273.47 749.031 273.75 747.5C273.937 746.479 274.124 745.453 274.344 744.438C274.501 743.71 274.767 742.941 274.75 742.188C274.716 740.693 274.397 739.182 274.281 737.688C274.019 734.304 273.807 730.893 273.719 727.5C273.511 719.524 274.147 711.575 275.531 703.719C277.01 695.326 279.301 687.088 282.062 679.031C289.947 656.027 302.268 634.8 316.156 614.938C329.064 596.477 343.973 579.55 360 563.75C375.791 548.183 392.956 533.82 411.406 521.5C433.746 506.583 458.151 494.568 483.25 485.062C506.437 476.281 530.608 469.719 555.281 466.938C577.351 464.45 599.93 465.123 621.531 470.562C628.736 472.377 635.754 474.777 642.625 477.594C636.147 473.807 629.453 470.425 622.5 467.594C595.709 456.685 566.369 453.337 537.625 454.406Z" stroke="none"/>
</svg>
